<mxfile host="ac.draw.io" modified="2024-05-30T14:19:27.942Z" agent="Mozilla/5.0 (Macintosh; Intel Mac OS X 10_15_7) AppleWebKit/605.1.15 (KHTML, like Gecko) Version/17.4.1 Safari/605.1.15" version="24.4.10" etag="qwHMlEifG_cDkv2gF-BO" type="embed">
  <diagram id="m19Dm0vVR_zLFfFMOk7l" name="Page-1">
    <mxGraphModel dx="3781" dy="2367" grid="1" gridSize="10" guides="1" tooltips="1" connect="1" arrows="1" fold="1" page="1" pageScale="1" pageWidth="827" pageHeight="1169" math="0" shadow="0">
      <root>
        <mxCell id="0" />
        <mxCell id="1" parent="0" />
        <mxCell id="O3h_P8_4IRFyB8X-hNCr-1" value="" style="rounded=0;whiteSpace=wrap;html=1;fontSize=16;fillColor=#eeeeee;strokeColor=#36393d;" vertex="1" parent="1">
          <mxGeometry x="-130" y="-60" width="1050" height="660" as="geometry" />
        </mxCell>
        <mxCell id="O3h_P8_4IRFyB8X-hNCr-2" value="" style="rounded=0;whiteSpace=wrap;html=1;fontSize=16;fillColor=#f5f5f5;fontColor=#333333;strokeColor=#666666;" vertex="1" parent="1">
          <mxGeometry x="30" y="-40" width="740" height="620" as="geometry" />
        </mxCell>
        <mxCell id="O3h_P8_4IRFyB8X-hNCr-3" style="edgeStyle=orthogonalEdgeStyle;rounded=0;orthogonalLoop=1;jettySize=auto;html=1;exitX=0.25;exitY=1;exitDx=0;exitDy=0;entryX=0.25;entryY=0;entryDx=0;entryDy=0;" edge="1" parent="1" source="O3h_P8_4IRFyB8X-hNCr-9" target="O3h_P8_4IRFyB8X-hNCr-22">
          <mxGeometry relative="1" as="geometry" />
        </mxCell>
        <mxCell id="O3h_P8_4IRFyB8X-hNCr-4" value="Channel&lt;br&gt;A" style="edgeLabel;html=1;align=center;verticalAlign=middle;resizable=0;points=[];" vertex="1" connectable="0" parent="O3h_P8_4IRFyB8X-hNCr-3">
          <mxGeometry x="-0.2708" relative="1" as="geometry">
            <mxPoint y="21" as="offset" />
          </mxGeometry>
        </mxCell>
        <mxCell id="O3h_P8_4IRFyB8X-hNCr-5" style="edgeStyle=orthogonalEdgeStyle;rounded=0;orthogonalLoop=1;jettySize=auto;html=1;exitX=0.75;exitY=1;exitDx=0;exitDy=0;entryX=0.75;entryY=0;entryDx=0;entryDy=0;" edge="1" parent="1" source="O3h_P8_4IRFyB8X-hNCr-9" target="O3h_P8_4IRFyB8X-hNCr-22">
          <mxGeometry relative="1" as="geometry" />
        </mxCell>
        <mxCell id="O3h_P8_4IRFyB8X-hNCr-6" value="Channel&lt;br&gt;B" style="edgeLabel;html=1;align=center;verticalAlign=middle;resizable=0;points=[];" vertex="1" connectable="0" parent="O3h_P8_4IRFyB8X-hNCr-5">
          <mxGeometry x="0.0625" y="1" relative="1" as="geometry">
            <mxPoint y="8" as="offset" />
          </mxGeometry>
        </mxCell>
        <mxCell id="O3h_P8_4IRFyB8X-hNCr-7" style="edgeStyle=orthogonalEdgeStyle;rounded=0;orthogonalLoop=1;jettySize=auto;html=1;exitX=1;exitY=0.5;exitDx=0;exitDy=0;fontSize=18;entryX=-0.007;entryY=0.117;entryDx=0;entryDy=0;entryPerimeter=0;" edge="1" parent="1" source="O3h_P8_4IRFyB8X-hNCr-34" target="O3h_P8_4IRFyB8X-hNCr-32">
          <mxGeometry relative="1" as="geometry">
            <mxPoint x="-100" y="250" as="targetPoint" />
            <mxPoint x="-170" y="269.9999999999998" as="sourcePoint" />
            <Array as="points" />
          </mxGeometry>
        </mxCell>
        <mxCell id="O3h_P8_4IRFyB8X-hNCr-8" style="edgeStyle=orthogonalEdgeStyle;rounded=0;orthogonalLoop=1;jettySize=auto;html=1;exitX=1;exitY=0.5;exitDx=0;exitDy=0;fontSize=12;startArrow=none;startFill=0;entryX=0.75;entryY=1;entryDx=0;entryDy=0;" edge="1" parent="1" target="O3h_P8_4IRFyB8X-hNCr-72">
          <mxGeometry relative="1" as="geometry">
            <mxPoint x="800" y="440" as="targetPoint" />
            <mxPoint x="679.9999999999995" y="439.6199999999999" as="sourcePoint" />
            <Array as="points" />
          </mxGeometry>
        </mxCell>
        <mxCell id="O3h_P8_4IRFyB8X-hNCr-9" value="DDR PHY&lt;br style=&quot;font-size: 16px;&quot;&gt;LPDDR5x" style="rounded=0;whiteSpace=wrap;html=1;fontSize=16;" vertex="1" parent="1">
          <mxGeometry x="240" y="400" width="440" height="160" as="geometry" />
        </mxCell>
        <mxCell id="O3h_P8_4IRFyB8X-hNCr-10" style="edgeStyle=orthogonalEdgeStyle;rounded=0;orthogonalLoop=1;jettySize=auto;html=1;exitX=0.25;exitY=1;exitDx=0;exitDy=0;entryX=0.25;entryY=0;entryDx=0;entryDy=0;endArrow=classic;endFill=1;startArrow=classic;startFill=1;" edge="1" parent="1" source="O3h_P8_4IRFyB8X-hNCr-15" target="O3h_P8_4IRFyB8X-hNCr-9">
          <mxGeometry relative="1" as="geometry" />
        </mxCell>
        <mxCell id="O3h_P8_4IRFyB8X-hNCr-11" value="DFI0&lt;br&gt;data + ctrl" style="edgeLabel;html=1;align=center;verticalAlign=middle;resizable=0;points=[];fontSize=14;" vertex="1" connectable="0" parent="O3h_P8_4IRFyB8X-hNCr-10">
          <mxGeometry x="0.0433" y="1" relative="1" as="geometry">
            <mxPoint as="offset" />
          </mxGeometry>
        </mxCell>
        <mxCell id="O3h_P8_4IRFyB8X-hNCr-12" style="edgeStyle=orthogonalEdgeStyle;rounded=0;orthogonalLoop=1;jettySize=auto;html=1;exitX=0.75;exitY=1;exitDx=0;exitDy=0;entryX=0.75;entryY=0;entryDx=0;entryDy=0;startArrow=classic;startFill=1;" edge="1" parent="1" source="O3h_P8_4IRFyB8X-hNCr-15" target="O3h_P8_4IRFyB8X-hNCr-9">
          <mxGeometry relative="1" as="geometry" />
        </mxCell>
        <mxCell id="O3h_P8_4IRFyB8X-hNCr-13" value="DFI1&lt;br&gt;data + ctrl" style="edgeLabel;html=1;align=center;verticalAlign=middle;resizable=0;points=[];fontSize=14;" vertex="1" connectable="0" parent="O3h_P8_4IRFyB8X-hNCr-12">
          <mxGeometry x="0.0433" relative="1" as="geometry">
            <mxPoint as="offset" />
          </mxGeometry>
        </mxCell>
        <mxCell id="O3h_P8_4IRFyB8X-hNCr-14" style="edgeStyle=orthogonalEdgeStyle;rounded=0;orthogonalLoop=1;jettySize=auto;html=1;exitX=1;exitY=0.25;exitDx=0;exitDy=0;fontSize=12;startArrow=none;startFill=0;entryX=1;entryY=0.333;entryDx=0;entryDy=0;entryPerimeter=0;" edge="1" parent="1" source="O3h_P8_4IRFyB8X-hNCr-15" target="O3h_P8_4IRFyB8X-hNCr-1">
          <mxGeometry relative="1" as="geometry">
            <mxPoint x="840" y="160.16666666666674" as="targetPoint" />
            <Array as="points">
              <mxPoint x="800" y="160" />
              <mxPoint x="800" y="160" />
            </Array>
          </mxGeometry>
        </mxCell>
        <mxCell id="O3h_P8_4IRFyB8X-hNCr-15" value="DDR Memory Controller&lt;br style=&quot;font-size: 16px;&quot;&gt;LPDDR5x" style="rounded=0;whiteSpace=wrap;html=1;fontSize=16;" vertex="1" parent="1">
          <mxGeometry x="240" y="110" width="440" height="170" as="geometry" />
        </mxCell>
        <mxCell id="O3h_P8_4IRFyB8X-hNCr-16" style="edgeStyle=orthogonalEdgeStyle;rounded=0;orthogonalLoop=1;jettySize=auto;html=1;exitX=0.5;exitY=1;exitDx=0;exitDy=0;entryX=0.864;entryY=0;entryDx=0;entryDy=0;entryPerimeter=0;fontSize=12;startArrow=classic;startFill=1;" edge="1" parent="1" source="O3h_P8_4IRFyB8X-hNCr-18" target="O3h_P8_4IRFyB8X-hNCr-15">
          <mxGeometry relative="1" as="geometry" />
        </mxCell>
        <mxCell id="O3h_P8_4IRFyB8X-hNCr-17" style="edgeStyle=orthogonalEdgeStyle;rounded=0;orthogonalLoop=1;jettySize=auto;html=1;exitX=1;exitY=0.5;exitDx=0;exitDy=0;entryX=0;entryY=0.5;entryDx=0;entryDy=0;fontSize=14;startArrow=classic;startFill=1;endArrow=classic;endFill=1;" edge="1" parent="1" source="O3h_P8_4IRFyB8X-hNCr-18" target="O3h_P8_4IRFyB8X-hNCr-53">
          <mxGeometry relative="1" as="geometry" />
        </mxCell>
        <mxCell id="O3h_P8_4IRFyB8X-hNCr-18" value="Write&lt;br&gt;RAM" style="rounded=0;whiteSpace=wrap;html=1;" vertex="1" parent="1">
          <mxGeometry x="560" width="120" height="80" as="geometry" />
        </mxCell>
        <mxCell id="O3h_P8_4IRFyB8X-hNCr-19" style="edgeStyle=orthogonalEdgeStyle;rounded=0;orthogonalLoop=1;jettySize=auto;html=1;exitX=0.5;exitY=1;exitDx=0;exitDy=0;fontSize=12;startArrow=classic;startFill=1;" edge="1" parent="1" source="O3h_P8_4IRFyB8X-hNCr-21" target="O3h_P8_4IRFyB8X-hNCr-15">
          <mxGeometry relative="1" as="geometry">
            <mxPoint x="390" y="110" as="targetPoint" />
            <Array as="points">
              <mxPoint x="389" y="100" />
              <mxPoint x="390" y="100" />
            </Array>
          </mxGeometry>
        </mxCell>
        <mxCell id="O3h_P8_4IRFyB8X-hNCr-20" style="edgeStyle=orthogonalEdgeStyle;rounded=0;orthogonalLoop=1;jettySize=auto;html=1;exitX=1;exitY=0.5;exitDx=0;exitDy=0;entryX=0;entryY=0.5;entryDx=0;entryDy=0;fontSize=14;startArrow=classic;startFill=1;endArrow=classic;endFill=1;" edge="1" parent="1" source="O3h_P8_4IRFyB8X-hNCr-21" target="O3h_P8_4IRFyB8X-hNCr-56">
          <mxGeometry relative="1" as="geometry" />
        </mxCell>
        <mxCell id="O3h_P8_4IRFyB8X-hNCr-21" value="Read&lt;br&gt;RAM" style="rounded=0;whiteSpace=wrap;html=1;" vertex="1" parent="1">
          <mxGeometry x="330" width="120" height="80" as="geometry" />
        </mxCell>
        <mxCell id="O3h_P8_4IRFyB8X-hNCr-22" value="SDRAM&lt;br style=&quot;font-size: 16px;&quot;&gt;Dual channel&lt;br style=&quot;font-size: 16px;&quot;&gt;Dual rank&lt;br style=&quot;font-size: 16px;&quot;&gt;max capacity 8GiB" style="rounded=0;whiteSpace=wrap;html=1;fontSize=16;" vertex="1" parent="1">
          <mxGeometry x="240" y="640" width="440" height="120" as="geometry" />
        </mxCell>
        <mxCell id="O3h_P8_4IRFyB8X-hNCr-23" style="edgeStyle=orthogonalEdgeStyle;rounded=0;orthogonalLoop=1;jettySize=auto;html=1;exitX=0.129;exitY=0.99;exitDx=0;exitDy=0;entryX=0;entryY=0.25;entryDx=0;entryDy=0;fontSize=16;startArrow=none;startFill=0;endArrow=classic;endFill=1;exitPerimeter=0;" edge="1" parent="1" source="O3h_P8_4IRFyB8X-hNCr-32" target="O3h_P8_4IRFyB8X-hNCr-26">
          <mxGeometry relative="1" as="geometry" />
        </mxCell>
        <mxCell id="O3h_P8_4IRFyB8X-hNCr-24" style="edgeStyle=orthogonalEdgeStyle;rounded=0;orthogonalLoop=1;jettySize=auto;html=1;exitX=0;exitY=0.75;exitDx=0;exitDy=0;fontSize=16;startArrow=none;startFill=0;endArrow=classic;endFill=1;entryX=0;entryY=0.75;entryDx=0;entryDy=0;" edge="1" parent="1" target="O3h_P8_4IRFyB8X-hNCr-26">
          <mxGeometry relative="1" as="geometry">
            <mxPoint x="-110" y="259.99999999999955" as="sourcePoint" />
            <Array as="points">
              <mxPoint x="-110" y="453" />
              <mxPoint x="-60" y="453" />
            </Array>
          </mxGeometry>
        </mxCell>
        <mxCell id="O3h_P8_4IRFyB8X-hNCr-25" style="edgeStyle=orthogonalEdgeStyle;rounded=0;orthogonalLoop=1;jettySize=auto;html=1;exitX=0.5;exitY=0;exitDx=0;exitDy=0;entryX=0.5;entryY=1;entryDx=0;entryDy=0;fontSize=16;startArrow=none;startFill=0;endArrow=classic;endFill=1;" edge="1" parent="1" source="O3h_P8_4IRFyB8X-hNCr-26" target="O3h_P8_4IRFyB8X-hNCr-33">
          <mxGeometry relative="1" as="geometry" />
        </mxCell>
        <mxCell id="O3h_P8_4IRFyB8X-hNCr-26" value="PPMU" style="rounded=0;whiteSpace=wrap;html=1;fillColor=#f8cecc;strokeColor=#b85450;" vertex="1" parent="1">
          <mxGeometry x="-60" y="413.13" width="80" height="53.75" as="geometry" />
        </mxCell>
        <mxCell id="O3h_P8_4IRFyB8X-hNCr-27" style="edgeStyle=orthogonalEdgeStyle;rounded=0;orthogonalLoop=1;jettySize=auto;html=1;exitX=1;exitY=0.5;exitDx=0;exitDy=0;entryX=0;entryY=0.5;entryDx=0;entryDy=0;fontSize=16;startArrow=none;startFill=0;endArrow=classic;endFill=1;" edge="1" parent="1" source="O3h_P8_4IRFyB8X-hNCr-28" target="O3h_P8_4IRFyB8X-hNCr-77">
          <mxGeometry relative="1" as="geometry" />
        </mxCell>
        <mxCell id="O3h_P8_4IRFyB8X-hNCr-28" value="DDRC Low Power FSM" style="rounded=0;whiteSpace=wrap;html=1;fillColor=#dae8fc;strokeColor=#6c8ebf;" vertex="1" parent="1">
          <mxGeometry x="130" y="200" width="70" height="40" as="geometry" />
        </mxCell>
        <mxCell id="O3h_P8_4IRFyB8X-hNCr-29" style="edgeStyle=orthogonalEdgeStyle;rounded=0;orthogonalLoop=1;jettySize=auto;html=1;exitX=0.124;exitY=0.999;exitDx=0;exitDy=0;entryX=0;entryY=0.167;entryDx=0;entryDy=0;fontSize=12;entryPerimeter=0;exitPerimeter=0;" edge="1" parent="1" source="O3h_P8_4IRFyB8X-hNCr-32" target="O3h_P8_4IRFyB8X-hNCr-33">
          <mxGeometry relative="1" as="geometry">
            <Array as="points">
              <mxPoint x="-80" y="340" />
            </Array>
          </mxGeometry>
        </mxCell>
        <mxCell id="O3h_P8_4IRFyB8X-hNCr-30" style="edgeStyle=orthogonalEdgeStyle;rounded=0;orthogonalLoop=1;jettySize=auto;html=1;exitX=-0.004;exitY=0.87;exitDx=0;exitDy=0;entryX=1;entryY=0.5;entryDx=0;entryDy=0;fontSize=16;startArrow=none;startFill=0;endArrow=classic;endFill=1;exitPerimeter=0;" edge="1" parent="1" source="O3h_P8_4IRFyB8X-hNCr-32" target="O3h_P8_4IRFyB8X-hNCr-84">
          <mxGeometry relative="1" as="geometry">
            <Array as="points" />
          </mxGeometry>
        </mxCell>
        <mxCell id="O3h_P8_4IRFyB8X-hNCr-31" style="edgeStyle=orthogonalEdgeStyle;rounded=0;orthogonalLoop=1;jettySize=auto;html=1;exitX=1;exitY=0.25;exitDx=0;exitDy=0;strokeColor=#000000;fontSize=16;startArrow=none;startFill=0;endArrow=classic;endFill=1;" edge="1" parent="1" source="O3h_P8_4IRFyB8X-hNCr-32" target="O3h_P8_4IRFyB8X-hNCr-28">
          <mxGeometry relative="1" as="geometry">
            <Array as="points">
              <mxPoint x="110" y="250" />
              <mxPoint x="110" y="220" />
            </Array>
          </mxGeometry>
        </mxCell>
        <mxCell id="O3h_P8_4IRFyB8X-hNCr-32" value="AO CSRs" style="rounded=0;whiteSpace=wrap;html=1;fillColor=#f8cecc;strokeColor=#b85450;" vertex="1" parent="1">
          <mxGeometry x="-90" y="230" width="80" height="80" as="geometry" />
        </mxCell>
        <mxCell id="O3h_P8_4IRFyB8X-hNCr-33" value="clock gate(/divider)" style="rounded=0;whiteSpace=wrap;html=1;fillColor=#f8cecc;strokeColor=#b85450;" vertex="1" parent="1">
          <mxGeometry x="-60" y="330" width="80" height="60" as="geometry" />
        </mxCell>
        <mxCell id="O3h_P8_4IRFyB8X-hNCr-34" value="&lt;font style=&quot;font-size: 18px;&quot;&gt;LPDDR_X_TARG_CFG_APB&lt;/font&gt;" style="text;html=1;strokeColor=none;fillColor=none;align=right;verticalAlign=middle;whiteSpace=wrap;rounded=0;" vertex="1" parent="1">
          <mxGeometry x="-280" y="230" width="150" height="20" as="geometry" />
        </mxCell>
        <mxCell id="O3h_P8_4IRFyB8X-hNCr-35" style="edgeStyle=orthogonalEdgeStyle;rounded=0;orthogonalLoop=1;jettySize=auto;html=1;exitX=0.75;exitY=1;exitDx=0;exitDy=0;fontSize=18;entryX=0;entryY=0.5;entryDx=0;entryDy=0;" edge="1" parent="1" source="O3h_P8_4IRFyB8X-hNCr-39">
          <mxGeometry relative="1" as="geometry">
            <mxPoint x="240" y="139.99999999999955" as="targetPoint" />
            <mxPoint y="140.16666666666697" as="sourcePoint" />
            <Array as="points">
              <mxPoint x="80" y="140" />
            </Array>
          </mxGeometry>
        </mxCell>
        <mxCell id="O3h_P8_4IRFyB8X-hNCr-36" value="&lt;font style=&quot;font-size: 18px;&quot;&gt;LPDDR_X_TARG_LT_APB&lt;/font&gt;" style="text;html=1;strokeColor=none;fillColor=none;align=right;verticalAlign=middle;whiteSpace=wrap;rounded=0;" vertex="1" parent="1">
          <mxGeometry x="-250" y="150" width="120" height="40" as="geometry" />
        </mxCell>
        <mxCell id="O3h_P8_4IRFyB8X-hNCr-37" style="edgeStyle=orthogonalEdgeStyle;rounded=0;orthogonalLoop=1;jettySize=auto;html=1;exitX=0.5;exitY=1;exitDx=0;exitDy=0;entryX=0;entryY=0.5;entryDx=0;entryDy=0;fontSize=12;" edge="1" parent="1" source="O3h_P8_4IRFyB8X-hNCr-39" target="O3h_P8_4IRFyB8X-hNCr-41">
          <mxGeometry relative="1" as="geometry" />
        </mxCell>
        <mxCell id="O3h_P8_4IRFyB8X-hNCr-38" style="edgeStyle=orthogonalEdgeStyle;rounded=0;orthogonalLoop=1;jettySize=auto;html=1;exitX=0.5;exitY=0;exitDx=0;exitDy=0;entryX=0.5;entryY=0;entryDx=0;entryDy=0;fontSize=12;" edge="1" parent="1" source="O3h_P8_4IRFyB8X-hNCr-59" target="O3h_P8_4IRFyB8X-hNCr-39">
          <mxGeometry relative="1" as="geometry">
            <mxPoint x="-170" y="169.99999999999977" as="sourcePoint" />
            <Array as="points">
              <mxPoint x="-30" y="170" />
              <mxPoint x="-30" y="170" />
            </Array>
          </mxGeometry>
        </mxCell>
        <mxCell id="O3h_P8_4IRFyB8X-hNCr-39" value="APB DEMUX" style="shape=trapezoid;perimeter=trapezoidPerimeter;whiteSpace=wrap;html=1;fixedSize=1;fontSize=12;size=10;rotation=-90;fillColor=#dae8fc;strokeColor=#6c8ebf;" vertex="1" parent="1">
          <mxGeometry x="10" y="150" width="120" height="40" as="geometry" />
        </mxCell>
        <mxCell id="O3h_P8_4IRFyB8X-hNCr-40" style="edgeStyle=orthogonalEdgeStyle;rounded=0;orthogonalLoop=1;jettySize=auto;html=1;exitX=0;exitY=0.5;exitDx=0;exitDy=0;entryX=1;entryY=0.5;entryDx=0;entryDy=0;fontSize=12;" edge="1" parent="1" source="O3h_P8_4IRFyB8X-hNCr-76" target="O3h_P8_4IRFyB8X-hNCr-41">
          <mxGeometry relative="1" as="geometry" />
        </mxCell>
        <mxCell id="O3h_P8_4IRFyB8X-hNCr-41" value="Perf log&lt;br&gt;counter" style="rounded=0;whiteSpace=wrap;html=1;fillColor=#dae8fc;strokeColor=#6c8ebf;" vertex="1" parent="1">
          <mxGeometry x="130" y="150" width="70" height="40" as="geometry" />
        </mxCell>
        <mxCell id="O3h_P8_4IRFyB8X-hNCr-42" value="&lt;font style=&quot;font-size: 14px;&quot;&gt;IRQS&lt;/font&gt;" style="text;html=1;strokeColor=none;fillColor=none;align=left;verticalAlign=middle;whiteSpace=wrap;rounded=0;fontSize=14;" vertex="1" parent="1">
          <mxGeometry x="920" y="140" width="120" height="40" as="geometry" />
        </mxCell>
        <mxCell id="O3h_P8_4IRFyB8X-hNCr-43" style="edgeStyle=orthogonalEdgeStyle;rounded=0;orthogonalLoop=1;jettySize=auto;html=1;exitX=1;exitY=0.5;exitDx=0;exitDy=0;entryX=0;entryY=0.5;entryDx=0;entryDy=0;fontSize=16;startArrow=none;startFill=0;endArrow=classic;endFill=1;" edge="1" parent="1" source="O3h_P8_4IRFyB8X-hNCr-44" target="O3h_P8_4IRFyB8X-hNCr-33">
          <mxGeometry relative="1" as="geometry" />
        </mxCell>
        <mxCell id="O3h_P8_4IRFyB8X-hNCr-44" value="&lt;font style=&quot;font-size: 14px;&quot;&gt;ddr_clk&lt;br&gt;(800MHz)&lt;br&gt;&lt;/font&gt;" style="text;html=1;strokeColor=none;fillColor=none;align=right;verticalAlign=middle;whiteSpace=wrap;rounded=0;fontSize=14;" vertex="1" parent="1">
          <mxGeometry x="-250" y="350" width="120" height="20" as="geometry" />
        </mxCell>
        <mxCell id="O3h_P8_4IRFyB8X-hNCr-45" style="edgeStyle=orthogonalEdgeStyle;rounded=0;orthogonalLoop=1;jettySize=auto;html=1;exitX=1;exitY=0.75;exitDx=0;exitDy=0;entryX=0;entryY=0.5;entryDx=0;entryDy=0;fontSize=14;startArrow=none;startFill=0;endArrow=classic;endFill=1;strokeColor=#FF0000;" edge="1" parent="1" source="O3h_P8_4IRFyB8X-hNCr-33" target="O3h_P8_4IRFyB8X-hNCr-93">
          <mxGeometry relative="1" as="geometry">
            <Array as="points">
              <mxPoint x="40" y="375" />
              <mxPoint x="40" y="550" />
            </Array>
          </mxGeometry>
        </mxCell>
        <mxCell id="O3h_P8_4IRFyB8X-hNCr-46" style="edgeStyle=orthogonalEdgeStyle;rounded=0;orthogonalLoop=1;jettySize=auto;html=1;exitX=1;exitY=0.5;exitDx=0;exitDy=0;fontSize=12;startArrow=none;startFill=0;entryX=1;entryY=0.787;entryDx=0;entryDy=0;entryPerimeter=0;" edge="1" parent="1" target="O3h_P8_4IRFyB8X-hNCr-1">
          <mxGeometry relative="1" as="geometry">
            <mxPoint x="780" y="460" as="targetPoint" />
            <mxPoint x="679.9999999999995" y="459.4499999999998" as="sourcePoint" />
            <Array as="points">
              <mxPoint x="720" y="460" />
              <mxPoint x="720" y="460" />
            </Array>
          </mxGeometry>
        </mxCell>
        <mxCell id="O3h_P8_4IRFyB8X-hNCr-47" value="&lt;font style=&quot;font-size: 14px;&quot;&gt;Data&lt;/font&gt;" style="text;html=1;strokeColor=none;fillColor=none;align=left;verticalAlign=middle;whiteSpace=wrap;rounded=0;fontSize=14;" vertex="1" parent="1">
          <mxGeometry x="920" y="450" width="120" height="20" as="geometry" />
        </mxCell>
        <mxCell id="O3h_P8_4IRFyB8X-hNCr-48" value="&lt;font style=&quot;font-size: 14px;&quot;&gt;AC&lt;/font&gt;" style="text;html=1;strokeColor=none;fillColor=none;align=left;verticalAlign=middle;whiteSpace=wrap;rounded=0;fontSize=14;" vertex="1" parent="1">
          <mxGeometry x="920" y="470" width="70" height="20" as="geometry" />
        </mxCell>
        <mxCell id="O3h_P8_4IRFyB8X-hNCr-49" value="&lt;font style=&quot;font-size: 14px;&quot;&gt;B_SCAN&lt;/font&gt;" style="text;html=1;strokeColor=none;fillColor=none;align=left;verticalAlign=middle;whiteSpace=wrap;rounded=0;fontSize=14;" vertex="1" parent="1">
          <mxGeometry x="920" y="490" width="120" height="20" as="geometry" />
        </mxCell>
        <mxCell id="O3h_P8_4IRFyB8X-hNCr-50" value="&lt;font style=&quot;font-size: 14px;&quot;&gt;ATPG&lt;/font&gt;" style="text;html=1;strokeColor=none;fillColor=none;align=right;verticalAlign=middle;whiteSpace=wrap;rounded=0;fontSize=14;" vertex="1" parent="1">
          <mxGeometry x="610" y="410" width="70" height="20" as="geometry" />
        </mxCell>
        <mxCell id="O3h_P8_4IRFyB8X-hNCr-51" value="&lt;font style=&quot;font-size: 14px;&quot;&gt;PwrOKIn&lt;/font&gt;" style="text;html=1;strokeColor=none;fillColor=none;align=left;verticalAlign=middle;whiteSpace=wrap;rounded=0;fontSize=14;" vertex="1" parent="1">
          <mxGeometry x="920" y="530" width="120" height="20" as="geometry" />
        </mxCell>
        <mxCell id="O3h_P8_4IRFyB8X-hNCr-52" style="edgeStyle=orthogonalEdgeStyle;rounded=0;orthogonalLoop=1;jettySize=auto;html=1;exitX=1;exitY=0.5;exitDx=0;exitDy=0;fontSize=14;startArrow=none;startFill=0;endArrow=classic;endFill=1;" edge="1" parent="1" source="O3h_P8_4IRFyB8X-hNCr-53">
          <mxGeometry relative="1" as="geometry">
            <mxPoint x="799.9999999999995" y="40" as="targetPoint" />
            <Array as="points">
              <mxPoint x="770" y="40" />
            </Array>
          </mxGeometry>
        </mxCell>
        <mxCell id="O3h_P8_4IRFyB8X-hNCr-53" value="MBIST" style="rounded=0;whiteSpace=wrap;html=1;fontSize=14;verticalAlign=middle;horizontal=0;fillColor=#fff2cc;strokeColor=#d6b656;" vertex="1" parent="1">
          <mxGeometry x="700" width="30" height="80" as="geometry" />
        </mxCell>
        <mxCell id="O3h_P8_4IRFyB8X-hNCr-54" style="edgeStyle=orthogonalEdgeStyle;rounded=0;orthogonalLoop=1;jettySize=auto;html=1;exitX=1;exitY=0.5;exitDx=0;exitDy=0;fontSize=14;startArrow=none;startFill=0;endArrow=none;endFill=0;" edge="1" parent="1" source="O3h_P8_4IRFyB8X-hNCr-56">
          <mxGeometry relative="1" as="geometry">
            <mxPoint x="739.9999999999995" y="40" as="targetPoint" />
            <Array as="points">
              <mxPoint x="520" y="40" />
              <mxPoint x="520" y="-10" />
              <mxPoint x="740" y="-10" />
            </Array>
          </mxGeometry>
        </mxCell>
        <mxCell id="O3h_P8_4IRFyB8X-hNCr-55" style="edgeStyle=orthogonalEdgeStyle;rounded=0;orthogonalLoop=1;jettySize=auto;html=1;exitX=0.25;exitY=1;exitDx=0;exitDy=0;entryX=0;entryY=0.5;entryDx=0;entryDy=0;fontSize=12;jumpStyle=arc;" edge="1" parent="1" source="O3h_P8_4IRFyB8X-hNCr-39" target="O3h_P8_4IRFyB8X-hNCr-78">
          <mxGeometry relative="1" as="geometry">
            <Array as="points">
              <mxPoint x="100" y="200" />
              <mxPoint x="100" y="410" />
            </Array>
          </mxGeometry>
        </mxCell>
        <mxCell id="O3h_P8_4IRFyB8X-hNCr-56" value="MBIST" style="rounded=0;whiteSpace=wrap;html=1;fontSize=14;verticalAlign=middle;horizontal=0;fillColor=#fff2cc;strokeColor=#d6b656;" vertex="1" parent="1">
          <mxGeometry x="469" width="30" height="80" as="geometry" />
        </mxCell>
        <mxCell id="O3h_P8_4IRFyB8X-hNCr-57" value="&lt;font style=&quot;font-size: 14px;&quot;&gt;JTAG&lt;/font&gt;" style="text;html=1;strokeColor=none;fillColor=none;align=left;verticalAlign=middle;whiteSpace=wrap;rounded=0;fontSize=14;" vertex="1" parent="1">
          <mxGeometry x="920" y="30" width="120" height="20" as="geometry" />
        </mxCell>
        <mxCell id="O3h_P8_4IRFyB8X-hNCr-58" value="&lt;font style=&quot;font-size: 16px;&quot;&gt;lpddr_subsystem&lt;/font&gt;" style="text;html=1;strokeColor=none;fillColor=none;align=left;verticalAlign=middle;whiteSpace=wrap;rounded=0;fontSize=16;fontStyle=4" vertex="1" parent="1">
          <mxGeometry x="40" y="-40" width="120" height="20" as="geometry" />
        </mxCell>
        <mxCell id="O3h_P8_4IRFyB8X-hNCr-59" value="pipes" style="rounded=0;whiteSpace=wrap;html=1;rotation=-90;fillColor=#f8cecc;strokeColor=#b85450;" vertex="1" parent="1">
          <mxGeometry x="-160" y="160" width="80" height="20" as="geometry" />
        </mxCell>
        <mxCell id="O3h_P8_4IRFyB8X-hNCr-60" value="&lt;font style=&quot;font-size: 18px;&quot;&gt;LPDDR_X_TARG_HT_AXI&lt;/font&gt;" style="text;html=1;strokeColor=none;fillColor=none;align=right;verticalAlign=middle;whiteSpace=wrap;rounded=0;" vertex="1" parent="1">
          <mxGeometry x="-250" width="120" height="40" as="geometry" />
        </mxCell>
        <mxCell id="O3h_P8_4IRFyB8X-hNCr-61" style="edgeStyle=orthogonalEdgeStyle;rounded=0;orthogonalLoop=1;jettySize=auto;html=1;exitX=1;exitY=0.5;exitDx=0;exitDy=0;entryX=0.5;entryY=0;entryDx=0;entryDy=0;fontSize=12;" edge="1" parent="1" source="O3h_P8_4IRFyB8X-hNCr-60" target="O3h_P8_4IRFyB8X-hNCr-74">
          <mxGeometry relative="1" as="geometry">
            <mxPoint x="-60" y="20" as="targetPoint" />
          </mxGeometry>
        </mxCell>
        <mxCell id="O3h_P8_4IRFyB8X-hNCr-62" value="pipes" style="rounded=0;whiteSpace=wrap;html=1;rotation=-90;fillColor=#f8cecc;strokeColor=#b85450;" vertex="1" parent="1">
          <mxGeometry x="-160" y="10" width="80" height="20" as="geometry" />
        </mxCell>
        <mxCell id="O3h_P8_4IRFyB8X-hNCr-63" style="edgeStyle=orthogonalEdgeStyle;rounded=0;orthogonalLoop=1;jettySize=auto;html=1;exitX=1;exitY=0.5;exitDx=0;exitDy=0;fontSize=12;startArrow=none;startFill=0;entryX=0;entryY=0.5;entryDx=0;entryDy=0;" edge="1" parent="1" target="O3h_P8_4IRFyB8X-hNCr-48">
          <mxGeometry relative="1" as="geometry">
            <mxPoint x="770" y="479.86000000000007" as="targetPoint" />
            <mxPoint x="679.9999999999995" y="479.8899999999999" as="sourcePoint" />
            <Array as="points" />
          </mxGeometry>
        </mxCell>
        <mxCell id="O3h_P8_4IRFyB8X-hNCr-64" style="edgeStyle=orthogonalEdgeStyle;rounded=0;orthogonalLoop=1;jettySize=auto;html=1;exitX=1;exitY=0.5;exitDx=0;exitDy=0;fontSize=12;startArrow=none;startFill=0;entryX=0;entryY=0.5;entryDx=0;entryDy=0;" edge="1" parent="1" target="O3h_P8_4IRFyB8X-hNCr-49">
          <mxGeometry relative="1" as="geometry">
            <mxPoint x="770" y="499.8600000000001" as="targetPoint" />
            <mxPoint x="679.9999999999995" y="499.8899999999999" as="sourcePoint" />
            <Array as="points" />
          </mxGeometry>
        </mxCell>
        <mxCell id="O3h_P8_4IRFyB8X-hNCr-65" style="edgeStyle=orthogonalEdgeStyle;rounded=0;orthogonalLoop=1;jettySize=auto;html=1;exitX=1;exitY=0.5;exitDx=0;exitDy=0;fontSize=12;startArrow=none;startFill=0;entryX=0.5;entryY=1;entryDx=0;entryDy=0;" edge="1" parent="1" target="O3h_P8_4IRFyB8X-hNCr-72">
          <mxGeometry relative="1" as="geometry">
            <mxPoint x="770" y="420.0000000000001" as="targetPoint" />
            <mxPoint x="679.9999999999995" y="420.02999999999975" as="sourcePoint" />
            <Array as="points">
              <mxPoint x="840" y="420" />
            </Array>
          </mxGeometry>
        </mxCell>
        <mxCell id="O3h_P8_4IRFyB8X-hNCr-66" style="edgeStyle=orthogonalEdgeStyle;rounded=0;orthogonalLoop=1;jettySize=auto;html=1;exitX=0;exitY=0.5;exitDx=0;exitDy=0;fontSize=12;startArrow=none;startFill=0;entryX=1;entryY=0.787;entryDx=0;entryDy=0;entryPerimeter=0;" edge="1" parent="1" source="O3h_P8_4IRFyB8X-hNCr-51">
          <mxGeometry relative="1" as="geometry">
            <mxPoint x="679.9999999999995" y="539.75" as="targetPoint" />
            <mxPoint x="770" y="539.7200000000001" as="sourcePoint" />
            <Array as="points" />
          </mxGeometry>
        </mxCell>
        <mxCell id="O3h_P8_4IRFyB8X-hNCr-67" value="&lt;font style=&quot;font-size: 16px;&quot;&gt;lpddr_p&lt;/font&gt;" style="text;html=1;strokeColor=none;fillColor=none;align=left;verticalAlign=middle;whiteSpace=wrap;rounded=0;fontSize=16;fontStyle=4" vertex="1" parent="1">
          <mxGeometry x="-120" y="-60" width="120" height="20" as="geometry" />
        </mxCell>
        <mxCell id="O3h_P8_4IRFyB8X-hNCr-68" value="" style="endArrow=none;dashed=1;html=1;dashPattern=1 3;strokeWidth=2;rounded=0;fontSize=16;" edge="1" parent="1">
          <mxGeometry width="50" height="50" relative="1" as="geometry">
            <mxPoint x="-208" y="619.9999999999995" as="sourcePoint" />
            <mxPoint x="959.9999999999995" y="619.9999999999995" as="targetPoint" />
          </mxGeometry>
        </mxCell>
        <mxCell id="O3h_P8_4IRFyB8X-hNCr-69" value="&lt;font style=&quot;font-size: 14px;&quot;&gt;Off-Chip&lt;/font&gt;" style="text;html=1;strokeColor=none;fillColor=none;align=left;verticalAlign=middle;whiteSpace=wrap;rounded=0;fontSize=14;" vertex="1" parent="1">
          <mxGeometry x="-250" y="620" width="120" height="20" as="geometry" />
        </mxCell>
        <mxCell id="O3h_P8_4IRFyB8X-hNCr-70" value="&lt;font style=&quot;font-size: 14px;&quot;&gt;On-Chip&lt;/font&gt;" style="text;html=1;strokeColor=none;fillColor=none;align=left;verticalAlign=middle;whiteSpace=wrap;rounded=0;fontSize=14;" vertex="1" parent="1">
          <mxGeometry x="-250" y="600" width="120" height="20" as="geometry" />
        </mxCell>
        <mxCell id="O3h_P8_4IRFyB8X-hNCr-71" style="edgeStyle=orthogonalEdgeStyle;rounded=0;orthogonalLoop=1;jettySize=auto;html=1;exitX=1;exitY=0.5;exitDx=0;exitDy=0;fontSize=16;startArrow=none;startFill=0;endArrow=classic;endFill=1;entryX=0;entryY=0.5;entryDx=0;entryDy=0;" edge="1" parent="1" source="O3h_P8_4IRFyB8X-hNCr-72" target="O3h_P8_4IRFyB8X-hNCr-57">
          <mxGeometry relative="1" as="geometry">
            <mxPoint x="950" y="40.16666666666674" as="targetPoint" />
          </mxGeometry>
        </mxCell>
        <mxCell id="O3h_P8_4IRFyB8X-hNCr-72" value="DFT&lt;br&gt;2&lt;br&gt;JTAG" style="rounded=0;whiteSpace=wrap;html=1;fontSize=14;verticalAlign=middle;horizontal=1;fillColor=#fff2cc;strokeColor=#d6b656;" vertex="1" parent="1">
          <mxGeometry x="800" width="80" height="80" as="geometry" />
        </mxCell>
        <mxCell id="O3h_P8_4IRFyB8X-hNCr-73" value="&lt;font style=&quot;font-size: 14px;&quot;&gt;TDR&lt;/font&gt;" style="text;html=1;strokeColor=none;fillColor=none;align=right;verticalAlign=middle;whiteSpace=wrap;rounded=0;fontSize=14;" vertex="1" parent="1">
          <mxGeometry x="610" y="430.01" width="70" height="20" as="geometry" />
        </mxCell>
        <mxCell id="O3h_P8_4IRFyB8X-hNCr-74" value="&lt;font style=&quot;font-size: 14px;&quot;&gt;axi_in&lt;/font&gt;" style="text;html=1;strokeColor=none;fillColor=none;align=center;verticalAlign=middle;whiteSpace=wrap;rounded=0;fontSize=14;" vertex="1" parent="1">
          <mxGeometry x="240" y="110" width="90" height="20" as="geometry" />
        </mxCell>
        <mxCell id="O3h_P8_4IRFyB8X-hNCr-75" value="&lt;font style=&quot;font-size: 14px;&quot;&gt;apb_in&lt;/font&gt;" style="text;html=1;strokeColor=none;fillColor=none;align=left;verticalAlign=middle;whiteSpace=wrap;rounded=0;fontSize=14;" vertex="1" parent="1">
          <mxGeometry x="240" y="130" width="100" height="20" as="geometry" />
        </mxCell>
        <mxCell id="O3h_P8_4IRFyB8X-hNCr-76" value="&lt;font style=&quot;font-size: 14px;&quot;&gt;perf_out&lt;/font&gt;" style="text;html=1;strokeColor=none;fillColor=none;align=left;verticalAlign=middle;whiteSpace=wrap;rounded=0;fontSize=14;" vertex="1" parent="1">
          <mxGeometry x="240" y="160" width="100" height="20" as="geometry" />
        </mxCell>
        <mxCell id="O3h_P8_4IRFyB8X-hNCr-77" value="&lt;font style=&quot;font-size: 14px;&quot;&gt;ddrc_low_power&lt;/font&gt;" style="text;html=1;strokeColor=none;fillColor=none;align=left;verticalAlign=middle;whiteSpace=wrap;rounded=0;fontSize=14;" vertex="1" parent="1">
          <mxGeometry x="240" y="210" width="100" height="20" as="geometry" />
        </mxCell>
        <mxCell id="O3h_P8_4IRFyB8X-hNCr-78" value="&lt;font style=&quot;font-size: 14px;&quot;&gt;apb_in&lt;/font&gt;" style="text;html=1;strokeColor=none;fillColor=none;align=left;verticalAlign=middle;whiteSpace=wrap;rounded=0;fontSize=14;" vertex="1" parent="1">
          <mxGeometry x="240" y="400" width="100" height="20" as="geometry" />
        </mxCell>
        <mxCell id="O3h_P8_4IRFyB8X-hNCr-79" style="edgeStyle=orthogonalEdgeStyle;rounded=0;orthogonalLoop=1;jettySize=auto;html=1;exitX=1;exitY=0.5;exitDx=0;exitDy=0;entryX=0;entryY=0.5;entryDx=0;entryDy=0;fontSize=16;startArrow=none;startFill=0;endArrow=classic;endFill=1;" edge="1" parent="1" source="O3h_P8_4IRFyB8X-hNCr-80" target="O3h_P8_4IRFyB8X-hNCr-26">
          <mxGeometry relative="1" as="geometry" />
        </mxCell>
        <mxCell id="O3h_P8_4IRFyB8X-hNCr-80" value="global_rst_n" style="text;html=1;strokeColor=none;fillColor=none;align=right;verticalAlign=middle;whiteSpace=wrap;rounded=0;fontSize=14;" vertex="1" parent="1">
          <mxGeometry x="-250" y="430" width="120" height="20" as="geometry" />
        </mxCell>
        <mxCell id="O3h_P8_4IRFyB8X-hNCr-81" style="edgeStyle=orthogonalEdgeStyle;rounded=0;orthogonalLoop=1;jettySize=auto;html=1;exitX=1;exitY=0.5;exitDx=0;exitDy=0;entryX=0.002;entryY=0.37;entryDx=0;entryDy=0;fontSize=16;startArrow=none;startFill=0;endArrow=classic;endFill=1;entryPerimeter=0;" edge="1" parent="1" source="O3h_P8_4IRFyB8X-hNCr-82" target="O3h_P8_4IRFyB8X-hNCr-32">
          <mxGeometry relative="1" as="geometry">
            <Array as="points" />
          </mxGeometry>
        </mxCell>
        <mxCell id="O3h_P8_4IRFyB8X-hNCr-82" value="ref_clk" style="text;html=1;strokeColor=none;fillColor=none;align=right;verticalAlign=middle;whiteSpace=wrap;rounded=0;fontSize=14;" vertex="1" parent="1">
          <mxGeometry x="-250" y="250" width="120" height="20" as="geometry" />
        </mxCell>
        <mxCell id="O3h_P8_4IRFyB8X-hNCr-83" value="&lt;font style=&quot;font-size: 14px;&quot;&gt;ddrc_core_clk&lt;/font&gt;" style="text;html=1;strokeColor=none;fillColor=none;align=left;verticalAlign=middle;whiteSpace=wrap;rounded=0;fontSize=14;" vertex="1" parent="1">
          <mxGeometry x="240" y="240" width="100" height="20" as="geometry" />
        </mxCell>
        <mxCell id="O3h_P8_4IRFyB8X-hNCr-84" value="noc_isolation_intf" style="text;html=1;strokeColor=none;fillColor=none;align=right;verticalAlign=middle;whiteSpace=wrap;rounded=0;fontSize=14;" vertex="1" parent="1">
          <mxGeometry x="-250" y="290" width="120" height="20" as="geometry" />
        </mxCell>
        <mxCell id="O3h_P8_4IRFyB8X-hNCr-85" style="edgeStyle=orthogonalEdgeStyle;rounded=0;orthogonalLoop=1;jettySize=auto;html=1;exitX=1;exitY=0.5;exitDx=0;exitDy=0;entryX=0.002;entryY=0.623;entryDx=0;entryDy=0;entryPerimeter=0;fontSize=16;startArrow=none;startFill=0;endArrow=classic;endFill=1;" edge="1" parent="1" source="O3h_P8_4IRFyB8X-hNCr-86" target="O3h_P8_4IRFyB8X-hNCr-32">
          <mxGeometry relative="1" as="geometry" />
        </mxCell>
        <mxCell id="O3h_P8_4IRFyB8X-hNCr-86" value="ao_rst_n" style="text;html=1;strokeColor=none;fillColor=none;align=right;verticalAlign=middle;whiteSpace=wrap;rounded=0;fontSize=14;" vertex="1" parent="1">
          <mxGeometry x="-250" y="270" width="120" height="20" as="geometry" />
        </mxCell>
        <mxCell id="O3h_P8_4IRFyB8X-hNCr-87" value="&lt;font style=&quot;font-size: 14px;&quot;&gt;DfiClk&lt;/font&gt;" style="text;html=1;strokeColor=none;fillColor=none;align=left;verticalAlign=middle;whiteSpace=wrap;rounded=0;fontSize=14;" vertex="1" parent="1">
          <mxGeometry x="240" y="420" width="100" height="20" as="geometry" />
        </mxCell>
        <mxCell id="O3h_P8_4IRFyB8X-hNCr-88" value="&lt;font style=&quot;font-size: 14px;&quot;&gt;ddrc_core_rstn&lt;/font&gt;" style="text;html=1;strokeColor=none;fillColor=none;align=left;verticalAlign=middle;whiteSpace=wrap;rounded=0;fontSize=14;" vertex="1" parent="1">
          <mxGeometry x="240" y="260" width="100" height="20" as="geometry" />
        </mxCell>
        <mxCell id="O3h_P8_4IRFyB8X-hNCr-89" value="&lt;font style=&quot;font-size: 14px;&quot;&gt;Reset&lt;/font&gt;" style="text;html=1;strokeColor=none;fillColor=none;align=left;verticalAlign=middle;whiteSpace=wrap;rounded=0;fontSize=14;" vertex="1" parent="1">
          <mxGeometry x="240" y="470" width="100" height="20" as="geometry" />
        </mxCell>
        <mxCell id="O3h_P8_4IRFyB8X-hNCr-90" style="edgeStyle=orthogonalEdgeStyle;rounded=0;orthogonalLoop=1;jettySize=auto;html=1;fontSize=16;startArrow=none;startFill=0;endArrow=classic;endFill=1;entryX=0;entryY=0.5;entryDx=0;entryDy=0;strokeColor=#FF3333;" edge="1" parent="1" target="O3h_P8_4IRFyB8X-hNCr-91">
          <mxGeometry relative="1" as="geometry">
            <mxPoint x="50" y="439.99999999999955" as="sourcePoint" />
            <Array as="points">
              <mxPoint x="130" y="440" />
              <mxPoint x="130" y="500" />
            </Array>
          </mxGeometry>
        </mxCell>
        <mxCell id="O3h_P8_4IRFyB8X-hNCr-91" value="&lt;font style=&quot;font-size: 14px;&quot;&gt;Reset_async&lt;/font&gt;" style="text;html=1;strokeColor=none;fillColor=none;align=left;verticalAlign=middle;whiteSpace=wrap;rounded=0;fontSize=14;" vertex="1" parent="1">
          <mxGeometry x="240" y="490" width="100" height="20" as="geometry" />
        </mxCell>
        <mxCell id="O3h_P8_4IRFyB8X-hNCr-92" value="&lt;font style=&quot;font-size: 14px;&quot;&gt;PllRefClk&lt;/font&gt;" style="text;html=1;strokeColor=none;fillColor=none;align=left;verticalAlign=middle;whiteSpace=wrap;rounded=0;fontSize=14;" vertex="1" parent="1">
          <mxGeometry x="240" y="520" width="120" height="20" as="geometry" />
        </mxCell>
        <mxCell id="O3h_P8_4IRFyB8X-hNCr-93" value="&lt;font style=&quot;font-size: 14px;&quot;&gt;PllBypClk&lt;/font&gt;" style="text;html=1;strokeColor=none;fillColor=none;align=left;verticalAlign=middle;whiteSpace=wrap;rounded=0;fontSize=14;" vertex="1" parent="1">
          <mxGeometry x="240" y="540" width="120" height="20" as="geometry" />
        </mxCell>
        <mxCell id="O3h_P8_4IRFyB8X-hNCr-94" value="&lt;font style=&quot;font-size: 14px;&quot;&gt;DFI0&lt;/font&gt;" style="text;html=1;strokeColor=none;fillColor=none;align=center;verticalAlign=middle;whiteSpace=wrap;rounded=0;fontSize=14;" vertex="1" parent="1">
          <mxGeometry x="310" y="400" width="80" height="20" as="geometry" />
        </mxCell>
        <mxCell id="O3h_P8_4IRFyB8X-hNCr-95" value="&lt;font style=&quot;font-size: 14px;&quot;&gt;DFI1&lt;/font&gt;" style="text;html=1;strokeColor=none;fillColor=none;align=center;verticalAlign=middle;whiteSpace=wrap;rounded=0;fontSize=14;" vertex="1" parent="1">
          <mxGeometry x="530" y="400" width="80" height="20" as="geometry" />
        </mxCell>
        <mxCell id="O3h_P8_4IRFyB8X-hNCr-96" style="edgeStyle=orthogonalEdgeStyle;rounded=0;orthogonalLoop=1;jettySize=auto;html=1;exitX=1;exitY=0.25;exitDx=0;exitDy=0;entryX=0;entryY=0.5;entryDx=0;entryDy=0;fontSize=16;startArrow=none;startFill=0;endArrow=classic;endFill=1;" edge="1" parent="1" source="O3h_P8_4IRFyB8X-hNCr-33" target="O3h_P8_4IRFyB8X-hNCr-83">
          <mxGeometry relative="1" as="geometry">
            <Array as="points">
              <mxPoint x="130" y="345" />
              <mxPoint x="130" y="250" />
            </Array>
          </mxGeometry>
        </mxCell>
        <mxCell id="O3h_P8_4IRFyB8X-hNCr-97" value="" style="rounded=0;whiteSpace=wrap;html=1;fontSize=16;fillColor=#f8cecc;strokeColor=#b85450;" vertex="1" parent="1">
          <mxGeometry x="-220" y="780" width="40" height="40" as="geometry" />
        </mxCell>
        <mxCell id="O3h_P8_4IRFyB8X-hNCr-98" value="RTL provided by Axelera FE team to be integrated in hardened module by SNPS" style="text;html=1;strokeColor=none;fillColor=none;align=left;verticalAlign=middle;whiteSpace=wrap;rounded=0;fontSize=16;" vertex="1" parent="1">
          <mxGeometry x="-160" y="780" width="320" height="40" as="geometry" />
        </mxCell>
        <mxCell id="O3h_P8_4IRFyB8X-hNCr-99" value="" style="rounded=0;whiteSpace=wrap;html=1;fontSize=16;fillColor=#fff2cc;strokeColor=#d6b656;" vertex="1" parent="1">
          <mxGeometry x="180" y="780" width="40" height="40" as="geometry" />
        </mxCell>
        <mxCell id="O3h_P8_4IRFyB8X-hNCr-100" value="RTL provided by Axelera DFT team to be integrated in hardened module by SNPS" style="text;html=1;strokeColor=none;fillColor=none;align=left;verticalAlign=middle;whiteSpace=wrap;rounded=0;fontSize=16;" vertex="1" parent="1">
          <mxGeometry x="240" y="780" width="320" height="40" as="geometry" />
        </mxCell>
        <mxCell id="O3h_P8_4IRFyB8X-hNCr-101" value="RTL provided by SNOS team to be integrated in hardened module by SNPS" style="text;html=1;strokeColor=none;fillColor=none;align=left;verticalAlign=middle;whiteSpace=wrap;rounded=0;fontSize=16;" vertex="1" parent="1">
          <mxGeometry x="640" y="780" width="320" height="40" as="geometry" />
        </mxCell>
        <mxCell id="O3h_P8_4IRFyB8X-hNCr-102" value="" style="rounded=0;whiteSpace=wrap;html=1;fontSize=16;fillColor=#dae8fc;strokeColor=#6c8ebf;" vertex="1" parent="1">
          <mxGeometry x="580" y="780" width="40" height="40" as="geometry" />
        </mxCell>
        <mxCell id="O3h_P8_4IRFyB8X-hNCr-103" value="&lt;font style=&quot;font-size: 14px;&quot;&gt;irqs&lt;/font&gt;" style="text;html=1;strokeColor=none;fillColor=none;align=right;verticalAlign=middle;whiteSpace=wrap;rounded=0;fontSize=14;" vertex="1" parent="1">
          <mxGeometry x="580" y="150" width="100" height="20" as="geometry" />
        </mxCell>
        <mxCell id="O3h_P8_4IRFyB8X-hNCr-104" value="&lt;font style=&quot;font-size: 14px;&quot;&gt;Data&lt;/font&gt;" style="text;html=1;strokeColor=none;fillColor=none;align=right;verticalAlign=middle;whiteSpace=wrap;rounded=0;fontSize=14;" vertex="1" parent="1">
          <mxGeometry x="560" y="446.88" width="120" height="20" as="geometry" />
        </mxCell>
        <mxCell id="O3h_P8_4IRFyB8X-hNCr-105" value="&lt;font style=&quot;font-size: 14px;&quot;&gt;AC&lt;/font&gt;" style="text;html=1;strokeColor=none;fillColor=none;align=right;verticalAlign=middle;whiteSpace=wrap;rounded=0;fontSize=14;" vertex="1" parent="1">
          <mxGeometry x="610" y="470" width="70" height="20" as="geometry" />
        </mxCell>
        <mxCell id="O3h_P8_4IRFyB8X-hNCr-106" value="&lt;font style=&quot;font-size: 14px;&quot;&gt;B_SCAN&lt;/font&gt;" style="text;html=1;strokeColor=none;fillColor=none;align=right;verticalAlign=middle;whiteSpace=wrap;rounded=0;fontSize=14;" vertex="1" parent="1">
          <mxGeometry x="560" y="490" width="120" height="20" as="geometry" />
        </mxCell>
        <mxCell id="O3h_P8_4IRFyB8X-hNCr-107" value="&lt;font style=&quot;font-size: 14px;&quot;&gt;PwrOKIn&lt;/font&gt;" style="text;html=1;strokeColor=none;fillColor=none;align=right;verticalAlign=middle;whiteSpace=wrap;rounded=0;fontSize=14;" vertex="1" parent="1">
          <mxGeometry x="560" y="530" width="120" height="20" as="geometry" />
        </mxCell>
        <mxCell id="O3h_P8_4IRFyB8X-hNCr-108" style="edgeStyle=orthogonalEdgeStyle;rounded=0;orthogonalLoop=1;jettySize=auto;html=1;fontSize=16;startArrow=none;startFill=0;endArrow=classic;endFill=1;exitX=1;exitY=0.25;exitDx=0;exitDy=0;" edge="1" parent="1" source="O3h_P8_4IRFyB8X-hNCr-33" target="O3h_P8_4IRFyB8X-hNCr-87">
          <mxGeometry relative="1" as="geometry">
            <mxPoint x="80" y="350" as="sourcePoint" />
            <Array as="points">
              <mxPoint x="80" y="345" />
              <mxPoint x="80" y="430" />
            </Array>
          </mxGeometry>
        </mxCell>
        <mxCell id="O3h_P8_4IRFyB8X-hNCr-109" style="edgeStyle=orthogonalEdgeStyle;rounded=0;orthogonalLoop=1;jettySize=auto;html=1;exitX=1;exitY=0.5;exitDx=0;exitDy=0;entryX=0;entryY=0.5;entryDx=0;entryDy=0;fontSize=16;startArrow=none;startFill=0;endArrow=classic;endFill=1;jumpStyle=arc;" edge="1" parent="1" source="O3h_P8_4IRFyB8X-hNCr-26" target="O3h_P8_4IRFyB8X-hNCr-88">
          <mxGeometry relative="1" as="geometry">
            <Array as="points">
              <mxPoint x="50" y="440" />
              <mxPoint x="50" y="270" />
            </Array>
          </mxGeometry>
        </mxCell>
        <mxCell id="O3h_P8_4IRFyB8X-hNCr-110" style="edgeStyle=orthogonalEdgeStyle;rounded=0;jumpStyle=arc;orthogonalLoop=1;jettySize=auto;html=1;exitX=0;exitY=0.5;exitDx=0;exitDy=0;strokeColor=#000000;fontSize=14;startArrow=none;startFill=0;endArrow=classic;endFill=1;entryX=0;entryY=0.5;entryDx=0;entryDy=0;" edge="1" parent="1" target="O3h_P8_4IRFyB8X-hNCr-92">
          <mxGeometry relative="1" as="geometry">
            <mxPoint x="80" y="429.99999999999955" as="sourcePoint" />
            <Array as="points">
              <mxPoint x="80" y="530" />
            </Array>
          </mxGeometry>
        </mxCell>
        <mxCell id="O3h_P8_4IRFyB8X-hNCr-111" style="edgeStyle=orthogonalEdgeStyle;rounded=0;orthogonalLoop=1;jettySize=auto;html=1;fontSize=16;startArrow=none;startFill=0;endArrow=classic;endFill=1;entryX=0;entryY=0.5;entryDx=0;entryDy=0;strokeColor=#FF3333;" edge="1" parent="1" target="O3h_P8_4IRFyB8X-hNCr-89">
          <mxGeometry relative="1" as="geometry">
            <mxPoint x="50" y="439.99999999999955" as="sourcePoint" />
            <Array as="points">
              <mxPoint x="130" y="440" />
              <mxPoint x="130" y="480" />
            </Array>
          </mxGeometry>
        </mxCell>
      </root>
    </mxGraphModel>
  </diagram>
</mxfile>
